<?xml version="1.0" standalone="no"?>
<!DOCTYPE svg PUBLIC "-//W3C//DTD SVG 20010904//EN"
 "http://www.w3.org/TR/2001/REC-SVG-20010904/DTD/svg10.dtd">
<svg version="1.0" xmlns="http://www.w3.org/2000/svg"
 width="328.000000pt" height="261.000000pt" viewBox="0 0 328.000000 261.000000"
 preserveAspectRatio="xMidYMid meet">
<metadata>
Created by potrace 1.16, written by Peter Selinger 2001-2019
</metadata>
<g transform="translate(0.000000,261.000000) scale(0.100000,-0.100000)"
fill="#000000" stroke="none">
<path d="M1107 2253 l-337 -338 0 98 0 97 -160 0 -160 0 0 -257 0 -258 -227
-227 -228 -228 223 -222 222 -223 505 505 505 505 198 -198 197 -197 223 223
222 222 -418 418 c-229 229 -419 417 -422 417 -3 0 -157 -152 -343 -337z"/>
<path d="M2318 1398 l-496 -503 -195 193 c-107 105 -199 192 -204 192 -4 0
-107 -99 -228 -221 l-220 -220 420 -414 c231 -228 425 -413 430 -412 6 1 334
327 730 725 l719 723 -220 220 c-120 120 -224 219 -229 219 -6 0 -234 -226
-507 -502z"/>
</g>
</svg>
